<svg aria-hidden="true" style="position:absolute;width:0;height:0;overflow:hidden" xmlns="http://www.w3.org/2000/svg">
  <defs>
    <symbol id="icon-linkedin" viewBox="0 0 32 32">
      <path d="M31.992 32v-.001H32V20.263c0-5.741-1.236-10.164-7.948-10.164-3.227 0-5.392 1.771-6.276 3.449h-.093v-2.913h-6.364v21.364h6.627V21.42c0-2.785.528-5.479 3.977-5.479 3.399 0 3.449 3.179 3.449 5.657v10.401h6.62zM.528 10.636h6.635V32H.528V10.636zM3.843 0C1.722 0 0 1.721 0 3.843s1.721 3.879 3.843 3.879c2.121 0 3.843-1.757 3.843-3.879A3.846 3.846 0 0 0 3.843 0z"/>
    </symbol>
    <symbol id="icon-facebook" viewBox="0 0 32 32">
      <path d="M21.33 5.313h2.921V.225C23.747.156 22.014 0 19.995 0c-4.212 0-7.097 2.649-7.097 7.519V12H8.25v5.688h4.648V32h5.699V17.689h4.46l.708-5.688h-5.169V8.082c.001-1.644.444-2.769 2.735-2.769z"/>
    </symbol>
    <symbol id="icon-twitter" viewBox="0 0 32 32">
      <path d="M32 6.078c-1.19.522-2.458.868-3.78 1.036a6.523 6.523 0 0 0 2.886-3.626 13.11 13.11 0 0 1-4.16 1.588A6.574 6.574 0 0 0 22.154 3c-3.632 0-6.556 2.948-6.556 6.562 0 .52.044 1.02.152 1.496-5.454-.266-10.28-2.88-13.522-6.862a6.605 6.605 0 0 0-.898 3.316 6.57 6.57 0 0 0 2.914 5.452 6.479 6.479 0 0 1-2.964-.808v.072c0 3.188 2.274 5.836 5.256 6.446a6.548 6.548 0 0 1-1.72.216 5.8 5.8 0 0 1-1.242-.112c.85 2.598 3.262 4.508 6.13 4.57a13.182 13.182 0 0 1-8.134 2.798c-.538 0-1.054-.024-1.57-.09A18.469 18.469 0 0 0 10.064 29c12.072 0 18.672-10 18.672-18.668 0-.29-.01-.57-.024-.848A13.087 13.087 0 0 0 32 6.078z"/>
    </symbol>
    <symbol id="icon-instagram" viewBox="0 0 32 32">
      <path d="M31.969 9.408c-.075-1.7-.35-2.869-.744-3.882a7.806 7.806 0 0 0-1.851-2.838A7.867 7.867 0 0 0 26.542.844C25.523.45 24.36.175 22.66.1 20.947.019 20.403 0 16.059 0s-4.888.019-6.595.094c-1.7.075-2.869.35-3.882.744a7.803 7.803 0 0 0-2.838 1.85A7.867 7.867 0 0 0 .9 5.52C.506 6.539.231 7.702.156 9.402c-.081 1.713-.1 2.257-.1 6.601s.019 4.888.094 6.595c.075 1.7.35 2.869.744 3.882a7.895 7.895 0 0 0 1.85 2.838 7.867 7.867 0 0 0 2.832 1.844c1.019.394 2.182.669 3.882.744 1.706.075 2.25.094 6.595.094s4.888-.019 6.595-.094c1.7-.075 2.869-.35 3.882-.744a8.184 8.184 0 0 0 4.682-4.682c.394-1.019.669-2.182.744-3.882.075-1.707.094-2.251.094-6.595s-.006-4.888-.081-6.595zm-2.882 13.065c-.069 1.563-.331 2.407-.55 2.969a5.31 5.31 0 0 1-3.038 3.038c-.563.219-1.413.481-2.969.55-1.688.075-2.194.094-6.464.094s-4.782-.019-6.464-.094c-1.563-.069-2.407-.331-2.969-.55a4.926 4.926 0 0 1-1.838-1.194 4.974 4.974 0 0 1-1.194-1.838c-.219-.563-.481-1.413-.55-2.969-.075-1.688-.094-2.194-.094-6.464s.019-4.782.094-6.464c.069-1.563.331-2.407.55-2.969a4.868 4.868 0 0 1 1.2-1.838A4.974 4.974 0 0 1 6.639 3.55c.563-.219 1.413-.481 2.969-.55 1.688-.075 2.194-.094 6.464-.094 4.276 0 4.782.019 6.464.094 1.563.069 2.407.331 2.969.55a4.914 4.914 0 0 1 1.838 1.194 4.974 4.974 0 0 1 1.194 1.838c.219.563.481 1.413.55 2.969.075 1.688.094 2.194.094 6.464s-.019 4.77-.094 6.458z"/>
      <path d="M16.059 7.783c-4.538 0-8.22 3.682-8.22 8.22s3.682 8.22 8.22 8.22c4.539 0 8.22-3.682 8.22-8.22s-3.682-8.22-8.22-8.22zm0 13.552a5.333 5.333 0 0 1 0-10.664 5.333 5.333 0 0 1 0 10.664zM26.524 7.458a1.919 1.919 0 1 1-3.838 0 1.919 1.919 0 0 1 3.838 0z"/>
    </symbol>
    <symbol id="icon-phone" viewBox="0 0 32 32">
<path d="M22 20c-2 2-2 4-4 4s-4-2-6-4-4-4-4-6 2-2 4-4-4-8-6-8-6 6-6 6c0 4 4.109 12.109 8 16s12 8 16 8c0 0 6-4 6-6s-6-8-8-6z"></path>
</symbol>
<symbol id="icon-user" viewBox="0 0 32 32">
<path d="M18 22.082v-1.649c2.203-1.241 4-4.337 4-7.432 0-4.971 0-9-6-9s-6 4.029-6 9c0 3.096 1.797 6.191 4 7.432v1.649c-6.784 0.555-12 3.888-12 7.918h28c0-4.030-5.216-7.364-12-7.918z"></path>
</symbol>
<svg xmlns="http://www.w3.org/2000/svg" id="icon-mail" data-name="Layer 1" viewBox="0 0 24 24">
  <path d="M21.896,7.371c-.555,.598-2.089,2.177-4.319,3.897-2.338,1.804-4.986,3.258-5.098,3.319-.149,.082-.314,.123-.479,.123s-.33-.041-.48-.123c-.111-.061-2.759-1.515-5.098-3.319-2.23-1.72-3.764-3.299-4.32-3.898l-.589-.63c-.269,1.387-.513,3.211-.513,5.261,0,4.458,1.156,7.852,1.206,7.994,.112,.324,.383,.568,.717,.646,.178,.042,4.42,1.023,9.078,1.023,4.819,0,8.914-.983,9.086-1.025,.33-.08,.596-.322,.708-.643,.049-.141,1.206-3.51,1.206-7.996,0-2.067-.242-3.886-.509-5.265l-.594,.636Z"/>
  <path d="M3.566,6.007c.409,.44,1.907,2.002,4.078,3.676,1.646,1.27,3.5,2.382,4.356,2.876,.856-.495,2.714-1.608,4.355-2.875,2.172-1.674,3.669-3.236,4.076-3.675l1.493-1.597c-.074-.243-.123-.385-.132-.411-.112-.319-.378-.559-.706-.639-.172-.042-4.257-1.025-9.087-1.025-4.744,0-8.907,.982-9.082,1.024-.333,.08-.601,.323-.712,.646-.009,.027-.057,.167-.129,.407l1.49,1.595Z"/>
</svg>
<svg width="24" height="24"  id="map-pin" viewBox="0 0 24 24" fill="none" xmlns="http://www.w3.org/2000/svg">
<path fill-rule="evenodd" clip-rule="evenodd" d="M20 10.3636C20 16.0909 12 21 12 21C12 21 4 16.0909 4 10.3636C4 6.29681 7.58172 3 12 3C16.4183 3 20 6.29681 20 10.3636V10.3636Z" stroke="#9DA4BD" stroke-linecap="round" stroke-linejoin="round"/>
<path fill-rule="evenodd" clip-rule="evenodd" d="M12 14C13.6569 14 15 12.6569 15 11C15 9.34315 13.6569 8 12 8C10.3431 8 9 9.34315 9 11C9 12.6569 10.3431 14 12 14Z" stroke="#9DA4BD" stroke-linecap="round" stroke-linejoin="round"/>
</svg>
<svg xmlns="http://www.w3.org/2000/svg" id="mail" width="35" height="32">
  <path fill="none" stroke="#9da4bd" stroke-linejoin="round" stroke-linecap="round" stroke-width="1.333" d="M7.733 6.667h19.2c1.32 0 2.4 1.05 2.4 2.333v14c0 1.283-1.08 2.333-2.4 2.333h-19.2c-1.32 0-2.4-1.05-2.4-2.333V9c0-1.283 1.08-2.333 2.4-2.333z"/>
  <path  d="m28 9.333-10.667 8-10.667-8"/>
</svg>

<svg version="1.1" id="phone" xmlns="http://www.w3.org/2000/svg" width="32" height="32" viewBox="0 0 32 32">
<path fill="white" stroke="#9da4bd" stroke-linejoin="round" stroke-linecap="round" stroke-miterlimit="4" stroke-width="1.3333" d="M26.666 21.337v3.218c0.002 0.604-0.25 1.181-0.695 1.589s-1.042 0.61-1.643 0.556c-3.301-0.359-6.471-1.487-9.257-3.293-2.592-1.647-4.789-3.844-6.436-6.436-1.813-2.798-2.941-5.984-3.293-9.3-0.054-0.6 0.146-1.195 0.552-1.639s0.98-0.698 1.582-0.699h3.218c1.077-0.011 1.995 0.779 2.145 1.845 0.136 1.030 0.388 2.041 0.751 3.014 0.295 0.784 0.106 1.668-0.483 2.263l-1.362 1.362c1.527 2.685 3.75 4.909 6.436 6.436l1.362-1.362c0.595-0.589 1.479-0.777 2.263-0.483 0.973 0.363 1.984 0.615 3.014 0.751 1.079 0.152 1.872 1.088 1.845 2.177z"></path>
</svg>
<svg width="19" height="19" id="modal-close" viewBox="0 0 19 19" fill="black" xmlns="http://www.w3.org/2000/svg">
  <path d="M18.6667 1.88L16.7867 0L9.33333 7.45334L1.88 0L0 1.88L7.45334 9.33333L0 16.7867L1.88 18.6667L9.33333 11.2133L16.7867 18.6667L18.6667 16.7867L11.2133 9.33333L18.6667 1.88Z" fill="#303030" />
</svg>
  </defs>
</svg>